HIERARCHY
ROOT mixamorig:Hips
{
	OFFSET 0.000000 201.639420 0.000000
	CHANNELS 6 Xposition Yposition Zposition Xrotation Yrotation Zrotation
	JOINT mixamorig:Spine
	{
		OFFSET 0.006200 19.524994 -2.481800
		CHANNELS 3 Xrotation Yrotation Zrotation
		JOINT mixamorig:Spine1
		{
			OFFSET -0.000900 22.835007 -2.825400
			CHANNELS 3 Xrotation Yrotation Zrotation
			JOINT mixamorig:Spine2
			{
				OFFSET -0.020600 26.552490 -3.193300
				CHANNELS 3 Xrotation Yrotation Zrotation
				JOINT mixamorig:Neck
				{
					OFFSET -0.060000 30.701813 1.352200
					CHANNELS 3 Xrotation Yrotation Zrotation
					JOINT mixamorig:Head
					{
						OFFSET -0.087200 22.547607 3.670900
						CHANNELS 3 Xrotation Yrotation Zrotation
						JOINT mixamorig:HeadTop_End
						{
							OFFSET -0.830600 40.355194 7.893500
							CHANNELS 3 Xrotation Yrotation Zrotation
							End Site
							{
								OFFSET 0.000000 30.592346 0.000000
							}
						}
						JOINT mixamorig:RightEye
						{
							OFFSET -6.302100 18.118591 16.197100
							CHANNELS 3 Xrotation Yrotation Zrotation
							End Site
							{
								OFFSET 0.000000 30.592346 0.000000
							}
						}
						JOINT mixamorig:LeftEye
						{
							OFFSET 6.741500 18.382690 16.401899
							CHANNELS 3 Xrotation Yrotation Zrotation
							End Site
							{
								OFFSET 0.000000 30.592346 0.000000
							}
						}
					}
				}
				JOINT mixamorig:LeftShoulder
				{
					OFFSET 11.924900 18.230499 1.425400
					CHANNELS 3 Xrotation Yrotation Zrotation
					JOINT mixamorig:LeftArm
					{
						OFFSET 25.435989 -0.697632 -5.229300
						CHANNELS 3 Xrotation Yrotation Zrotation
						JOINT mixamorig:LeftForeArm
						{
							OFFSET 54.684776 0.000000 0.000000
							CHANNELS 3 Xrotation Yrotation Zrotation
							JOINT mixamorig:LeftHand
							{
								OFFSET 55.098175 0.000000 0.000000
								CHANNELS 3 Xrotation Yrotation Zrotation
								JOINT mixamorig:LeftHandMiddle1
								{
									OFFSET 23.369751 0.000000 0.000000
									CHANNELS 3 Xrotation Yrotation Zrotation
									JOINT mixamorig:LeftHandMiddle2
									{
										OFFSET 6.378677 0.000000 0.000000
										CHANNELS 3 Xrotation Yrotation Zrotation
										JOINT mixamorig:LeftHandMiddle3
										{
											OFFSET 6.148331 0.000000 0.000000
											CHANNELS 3 Xrotation Yrotation Zrotation
											JOINT mixamorig:LeftHandMiddle4
											{
												OFFSET 6.582504 0.000000 0.000000
												CHANNELS 3 Xrotation Yrotation Zrotation
												End Site
												{
													OFFSET -1.168900 6.395691 1.028606
												}
											}
										}
									}
								}
								JOINT mixamorig:LeftHandThumb1
								{
									OFFSET 7.235672 -3.848206 5.434273
									CHANNELS 3 Xrotation Yrotation Zrotation
									JOINT mixamorig:LeftHandThumb2
									{
										OFFSET 6.568451 -3.792297 3.792300
										CHANNELS 3 Xrotation Yrotation Zrotation
										JOINT mixamorig:LeftHandThumb3
										{
											OFFSET 6.063080 -3.500519 3.500518
											CHANNELS 3 Xrotation Yrotation Zrotation
											JOINT mixamorig:LeftHandThumb4
											{
												OFFSET 4.793182 -2.767334 2.767349
												CHANNELS 3 Xrotation Yrotation Zrotation
												End Site
												{
													OFFSET 0.101639 6.054260 1.275483
												}
											}
										}
									}
								}
								JOINT mixamorig:LeftHandIndex1
								{
									OFFSET 23.101074 -0.309540 4.992809
									CHANNELS 3 Xrotation Yrotation Zrotation
									JOINT mixamorig:LeftHandIndex2
									{
										OFFSET 6.226883 0.000000 0.000000
										CHANNELS 3 Xrotation Yrotation Zrotation
										JOINT mixamorig:LeftHandIndex3
										{
											OFFSET 6.094330 0.000000 0.000000
											CHANNELS 3 Xrotation Yrotation Zrotation
											JOINT mixamorig:LeftHandIndex4
											{
												OFFSET 5.482605 0.000000 0.000000
												CHANNELS 3 Xrotation Yrotation Zrotation
												End Site
												{
													OFFSET -1.427902 5.233032 0.797164
												}
											}
										}
									}
								}
								JOINT mixamorig:LeftHandRing1
								{
									OFFSET 22.299240 0.021149 -3.964172
									CHANNELS 3 Xrotation Yrotation Zrotation
									JOINT mixamorig:LeftHandRing2
									{
										OFFSET 6.321869 0.000000 0.000000
										CHANNELS 3 Xrotation Yrotation Zrotation
										JOINT mixamorig:LeftHandRing3
										{
											OFFSET 5.899796 0.000000 0.000000
											CHANNELS 3 Xrotation Yrotation Zrotation
											JOINT mixamorig:LeftHandRing4
											{
												OFFSET 6.517899 0.000000 0.000000
												CHANNELS 3 Xrotation Yrotation Zrotation
												End Site
												{
													OFFSET -1.637299 6.232208 0.980890
												}
											}
										}
									}
								}
								JOINT mixamorig:LeftHandPinky1
								{
									OFFSET 20.463791 -0.302338 -8.562233
									CHANNELS 3 Xrotation Yrotation Zrotation
									JOINT mixamorig:LeftHandPinky2
									{
										OFFSET 6.908646 0.000000 0.000000
										CHANNELS 3 Xrotation Yrotation Zrotation
										JOINT mixamorig:LeftHandPinky3
										{
											OFFSET 4.622849 0.000000 0.000000
											CHANNELS 3 Xrotation Yrotation Zrotation
											JOINT mixamorig:LeftHandPinky4
											{
												OFFSET 5.216080 0.000000 0.000000
												CHANNELS 3 Xrotation Yrotation Zrotation
												End Site
												{
													OFFSET -0.606308 5.116241 0.814926
												}
											}
										}
									}
								}
							}
						}
					}
				}
				JOINT mixamorig:RightShoulder
				{
					OFFSET -12.001300 18.284088 1.348900
					CHANNELS 3 Xrotation Yrotation Zrotation
					JOINT mixamorig:RightArm
					{
						OFFSET -25.308500 -0.751312 -5.164599
						CHANNELS 3 Xrotation Yrotation Zrotation
						JOINT mixamorig:RightForeArm
						{
							OFFSET -54.684429 0.000000 0.000000
							CHANNELS 3 Xrotation Yrotation Zrotation
							JOINT mixamorig:RightHand
							{
								OFFSET -55.150291 0.000000 0.000000
								CHANNELS 3 Xrotation Yrotation Zrotation
								JOINT mixamorig:RightHandMiddle1
								{
									OFFSET -23.317566 0.000000 0.000000
									CHANNELS 3 Xrotation Yrotation Zrotation
									JOINT mixamorig:RightHandMiddle2
									{
										OFFSET -6.378403 0.000000 0.000000
										CHANNELS 3 Xrotation Yrotation Zrotation
										JOINT mixamorig:RightHandMiddle3
										{
											OFFSET -6.148193 0.000000 0.000000
											CHANNELS 3 Xrotation Yrotation Zrotation
											JOINT mixamorig:RightHandMiddle4
											{
												OFFSET -6.583389 0.000000 0.000000
												CHANNELS 3 Xrotation Yrotation Zrotation
												End Site
												{
													OFFSET 1.171692 6.395905 1.029786
												}
											}
										}
									}
								}
								JOINT mixamorig:RightHandThumb1
								{
									OFFSET -7.190521 -3.860474 5.435846
									CHANNELS 3 Xrotation Yrotation Zrotation
									JOINT mixamorig:RightHandThumb2
									{
										OFFSET -6.567429 -3.791718 3.791708
										CHANNELS 3 Xrotation Yrotation Zrotation
										JOINT mixamorig:RightHandThumb3
										{
											OFFSET -6.062469 -3.500153 3.500166
											CHANNELS 3 Xrotation Yrotation Zrotation
											JOINT mixamorig:RightHandThumb4
											{
												OFFSET -4.792618 -2.767029 2.767022
												CHANNELS 3 Xrotation Yrotation Zrotation
												End Site
												{
													OFFSET -0.100327 6.053253 1.276754
												}
											}
										}
									}
								}
								JOINT mixamorig:RightHandIndex1
								{
									OFFSET -23.048981 -0.310791 4.992554
									CHANNELS 3 Xrotation Yrotation Zrotation
									JOINT mixamorig:RightHandIndex2
									{
										OFFSET -6.227539 0.000000 0.000000
										CHANNELS 3 Xrotation Yrotation Zrotation
										JOINT mixamorig:RightHandIndex3
										{
											OFFSET -6.095047 0.000000 0.000000
											CHANNELS 3 Xrotation Yrotation Zrotation
											JOINT mixamorig:RightHandIndex4
											{
												OFFSET -5.484772 0.000000 0.000000
												CHANNELS 3 Xrotation Yrotation Zrotation
												End Site
												{
													OFFSET 1.420593 5.237305 0.797056
												}
											}
										}
									}
								}
								JOINT mixamorig:RightHandRing1
								{
									OFFSET -22.246323 0.020569 -3.963762
									CHANNELS 3 Xrotation Yrotation Zrotation
									JOINT mixamorig:RightHandRing2
									{
										OFFSET -6.322128 0.000000 0.000000
										CHANNELS 3 Xrotation Yrotation Zrotation
										JOINT mixamorig:RightHandRing3
										{
											OFFSET -5.900024 0.000000 0.000000
											CHANNELS 3 Xrotation Yrotation Zrotation
											JOINT mixamorig:RightHandRing4
											{
												OFFSET -6.518356 0.000000 0.000000
												CHANNELS 3 Xrotation Yrotation Zrotation
												End Site
												{
													OFFSET 1.636398 6.232697 0.982186
												}
											}
										}
									}
								}
								JOINT mixamorig:RightHandPinky1
								{
									OFFSET -20.411011 -0.303314 -8.561701
									CHANNELS 3 Xrotation Yrotation Zrotation
									JOINT mixamorig:RightHandPinky2
									{
										OFFSET -6.907349 0.000000 0.000000
										CHANNELS 3 Xrotation Yrotation Zrotation
										JOINT mixamorig:RightHandPinky3
										{
											OFFSET -4.623840 0.000000 0.000000
											CHANNELS 3 Xrotation Yrotation Zrotation
											JOINT mixamorig:RightHandPinky4
											{
												OFFSET -5.218353 0.000000 0.000000
												CHANNELS 3 Xrotation Yrotation Zrotation
												End Site
												{
													OFFSET 0.602097 5.118835 0.816273
												}
											}
										}
									}
								}
							}
						}
					}
				}
			}
		}
	}
	JOINT mixamorig:LeftUpLeg
	{
		OFFSET 18.168400 -13.561905 -0.039000
		CHANNELS 3 Xrotation Yrotation Zrotation
		JOINT mixamorig:LeftLeg
		{
			OFFSET 0.577358 -80.825211 -3.695000
			CHANNELS 3 Xrotation Yrotation Zrotation
			JOINT mixamorig:LeftFoot
			{
				OFFSET -0.577356 -83.370262 -6.520700
				CHANNELS 3 Xrotation Yrotation Zrotation
				JOINT mixamorig:LeftToeBase
				{
					OFFSET 0.750401 -20.798306 25.135401
					CHANNELS 3 Xrotation Yrotation Zrotation
					JOINT mixamorig:LeftToe_End
					{
						OFFSET -0.000500 0.001200 19.917799
						CHANNELS 3 Xrotation Yrotation Zrotation
						End Site
						{
							OFFSET 0.000000 19.917805 0.000000
						}
					}
				}
			}
		}
	}
	JOINT mixamorig:RightUpLeg
	{
		OFFSET -18.162500 -13.585098 -0.041000
		CHANNELS 3 Xrotation Yrotation Zrotation
		JOINT mixamorig:RightLeg
		{
			OFFSET -0.595024 -80.945297 -3.631900
			CHANNELS 3 Xrotation Yrotation Zrotation
			JOINT mixamorig:RightFoot
			{
				OFFSET 0.595024 -83.218193 -6.561200
				CHANNELS 3 Xrotation Yrotation Zrotation
				JOINT mixamorig:RightToeBase
				{
					OFFSET -0.753601 -20.807106 25.115000
					CHANNELS 3 Xrotation Yrotation Zrotation
					JOINT mixamorig:RightToe_End
					{
						OFFSET 0.000299 0.001700 19.918200
						CHANNELS 3 Xrotation Yrotation Zrotation
						End Site
						{
							OFFSET 0.000000 19.918203 0.000000
						}
					}
				}
			}
		}
	}
}
MOTION
Frames: 4
Frame Time: 0.033333
-0.274390 200.766510 -0.653838 -2.553026 -5.066718 0.128025 3.701943 -0.197211 -1.008323 3.457419 -0.151669 -0.489240 3.457559 -0.151548 -0.488284 -5.768086 2.652069 -0.825800 1.028699 5.554082 2.103876 -0.000000 -0.000000 -0.000000 -0.000000 -0.000000 -0.000000 -0.000000 -0.000000 -0.000000 -0.686140 2.538469 -5.428959 26.464613 -49.122669 -41.525163 0.000005 -27.478397 0.000017 -25.327113 20.514103 -7.967407 0.069508 0.977868 -8.131019 0.027245 0.613084 -5.087225 0.048412 0.816814 -6.784619 0.000001 0.000002 0.000001 1.761005 13.206306 11.210785 0.625934 0.078936 -1.235823 18.458853 27.816236 -8.604380 -0.000001 -0.000001 -0.000002 0.068065 0.967680 -8.045705 0.031195 0.656073 -5.444954 0.045578 0.792512 -6.581940 0.000003 0.000001 -0.000000 0.070535 0.985009 -8.190793 0.026667 0.606683 -5.033875 0.048441 0.816997 -6.786213 0.000000 0.000001 0.000002 0.646627 5.018679 -7.877877 0.005545 -3.541994 -4.759715 0.056552 0.882473 -7.333031 -0.000001 0.000001 0.000000 3.388776 13.155014 8.377053 22.383920 43.807252 45.616033 -0.000004 19.313801 -0.000005 -20.835731 -10.579472 -2.078840 0.066333 -0.960102 7.904016 0.025714 -0.598713 4.919065 0.046000 -0.800056 6.579847 0.000000 0.000000 -0.000000 -5.298946 -13.931328 -7.104620 0.937922 -0.115757 1.884197 5.252964 -28.346866 -13.831300 0.000001 -0.000001 0.000002 0.064776 -0.948775 7.810205 0.029403 -0.640074 5.259914 0.043439 -0.777706 6.395197 0.000001 -0.000001 0.000000 0.067078 -0.965381 7.947723 0.025270 -0.593568 4.876548 0.046057 -0.800638 6.584686 -0.000001 -0.000000 0.000000 0.068868 -0.978209 8.054262 0.019509 -0.521485 4.283091 0.051420 -0.845766 6.957697 0.000002 0.000001 0.000000 -9.660467 9.142331 2.931862 13.834311 10.038755 2.086251 -1.318578 2.505370 -3.659737 -0.000047 0.000002 -0.000001 -0.000000 0.000000 -0.000000 -9.965481 -12.087501 -2.340795 15.073085 -8.104400 -3.531857 -2.961437 -0.373255 3.293448 -0.009811 0.000000 -0.000000 0.000000 0.000000 -0.000000 
-0.303904 200.759399 -0.612987 -2.627683 -5.094866 0.155011 3.727462 -0.195684 -1.013879 3.480872 -0.151297 -0.510368 3.481017 -0.151174 -0.509413 -5.766889 2.654355 -0.807423 1.035515 5.561833 2.111443 0.000000 0.000000 -0.000000 0.000000 0.000000 -0.000000 0.000000 0.000000 -0.000000 -0.683719 2.528485 -5.417319 26.261548 -48.940013 -41.650869 -0.000018 -27.481326 -0.000004 -25.303339 20.513331 -7.836494 0.069500 0.977855 -8.130923 0.027227 0.613223 -5.088265 0.048427 0.816791 -6.784479 0.000002 0.000000 0.000000 1.760650 13.208298 11.210728 0.625930 0.078931 -1.235826 18.461832 27.820998 -8.604864 -0.000001 0.000003 -0.000001 0.068059 0.967690 -8.045907 0.031198 0.656132 -5.445399 0.045562 0.792537 -6.582062 -0.000002 0.000000 0.000001 0.070528 0.985005 -8.190753 0.026680 0.606796 -5.034819 0.048442 0.816981 -6.786109 -0.000003 -0.000002 -0.000000 0.646728 5.018806 -7.878963 0.005527 -3.542180 -4.758187 0.056574 0.882614 -7.334260 -0.000003 0.000000 -0.000000 3.380750 13.170552 8.475160 22.493710 43.892264 45.468723 0.000004 19.169221 0.000004 -20.508871 -10.385493 -1.837611 0.059649 -0.910844 7.495938 0.023147 -0.568114 4.667079 0.041381 -0.758944 6.240344 -0.000001 -0.000000 -0.000000 -5.224758 -13.801541 -7.098148 0.937925 -0.115754 1.884199 5.248436 -28.019208 -13.611649 0.000003 -0.000002 -0.000000 0.058244 -0.900092 7.406906 0.026480 -0.607376 4.990464 0.039092 -0.737720 6.065140 0.000003 -0.000001 0.000001 0.060330 -0.915862 7.537417 0.022751 -0.563198 4.626589 0.041438 -0.759511 6.245044 0.000001 -0.000000 0.000000 0.061944 -0.927949 7.637579 0.017560 -0.495039 4.065667 0.046243 -0.802219 6.597781 0.000000 0.000000 0.000000 -9.536554 8.951190 2.930466 13.841768 10.042687 1.954335 -1.337327 2.717747 -3.614982 -0.000171 -0.000002 0.000000 -0.000000 0.000000 0.000000 -9.921897 -12.069336 -2.377950 15.158087 -8.084301 -3.527984 -3.022368 -0.373565 3.296630 -0.009939 0.000004 0.000001 -0.000000 -0.000001 -0.000000 
-0.332587 200.751266 -0.546604 -2.685992 -5.134495 0.151575 3.751233 -0.198068 -1.017343 3.502667 -0.153754 -0.523198 3.502820 -0.153631 -0.522224 -5.783709 2.660860 -0.779289 1.068924 5.578347 2.111204 -0.000000 0.000000 -0.000000 -0.000000 0.000000 -0.000000 -0.000000 0.000000 -0.000000 -0.686281 2.535603 -5.390619 26.126997 -48.824241 -41.736349 -0.000002 -27.470720 0.000007 -25.351955 20.352801 -7.845569 0.069533 0.978065 -8.132630 0.027239 0.613125 -5.087357 0.048439 0.816970 -6.786037 0.000002 -0.000000 0.000001 1.759831 13.211250 11.210433 0.625936 0.078940 -1.235822 18.468331 27.831189 -8.605932 0.000001 0.000001 0.000000 0.068076 0.967798 -8.046598 0.031209 0.656277 -5.446595 0.045579 0.792596 -6.582550 -0.000002 0.000000 -0.000000 0.070535 0.985105 -8.191527 0.026694 0.606920 -5.035837 0.048443 0.817047 -6.786683 -0.000001 -0.000001 -0.000000 0.646716 5.018797 -7.878859 0.005546 -3.541825 -4.761184 0.056555 0.882547 -7.333741 -0.000004 -0.000000 0.000000 3.369407 13.171370 8.569225 22.577969 44.052770 45.329435 0.000001 18.848885 0.000004 -19.812135 -10.087348 -1.328037 0.050120 -0.835076 6.869152 0.019410 -0.520311 4.273560 0.034767 -0.695819 5.719325 0.000001 -0.000001 0.000000 -5.185930 -13.757376 -7.100617 0.937921 -0.115756 1.884200 5.244957 -27.841697 -13.493953 0.000004 -0.000002 -0.000001 0.048928 -0.825172 6.787225 0.022208 -0.556407 4.570704 0.032833 -0.676279 5.558311 0.000002 -0.000001 0.000001 0.050667 -0.839680 6.907223 0.019084 -0.515789 4.236435 0.034809 -0.696325 5.723649 -0.000001 -0.000000 0.000001 0.052030 -0.850813 6.999243 0.014726 -0.453200 3.721451 0.038855 -0.735589 6.047569 -0.000003 -0.000001 0.000000 -9.458159 8.838483 2.974774 13.901524 10.042862 1.837178 -1.391107 2.873017 -3.584372 0.000012 -0.000000 0.000000 -0.000000 -0.000000 -0.000000 -9.861754 -12.037210 -2.386964 15.210529 -8.070919 -3.498555 -3.073703 -0.374060 3.286413 -0.010108 -0.000001 0.000001 0.000000 -0.000001 0.000000 
-0.360348 200.740891 -0.464055 -2.761207 -5.182615 0.123364 3.778019 -0.206244 -1.016937 3.527420 -0.162804 -0.526193 3.527586 -0.162680 -0.525150 -5.782705 2.665626 -0.763115 1.090493 5.589661 2.107583 -0.000000 0.000000 -0.000000 -0.000000 0.000000 -0.000000 -0.000000 0.000000 -0.000000 -0.690121 2.547789 -5.367901 26.090192 -48.835221 -41.774110 -0.000004 -27.398354 -0.000002 -25.518893 20.117738 -7.961058 0.069556 0.978201 -8.133779 0.027260 0.613355 -5.089341 0.048456 0.817075 -6.786825 -0.000003 0.000000 -0.000001 1.758935 13.210867 11.209903 0.625928 0.078937 -1.235824 18.474149 27.839651 -8.606985 0.000002 0.000000 0.000001 0.068095 0.967966 -8.048039 0.031240 0.656445 -5.447996 0.045594 0.792724 -6.583659 0.000001 -0.000000 -0.000001 0.070578 0.985363 -8.193760 0.026680 0.606898 -5.035599 0.048477 0.817272 -6.788587 0.000000 0.000000 0.000002 0.646952 5.019088 -7.881532 0.005536 -3.541990 -4.759771 0.056606 0.882869 -7.336332 -0.000004 0.000001 -0.000002 3.366712 13.175127 8.599067 22.614847 44.250842 45.257865 0.000018 18.467319 -0.000002 -18.709433 -9.760306 -0.583184 0.039179 -0.738625 6.072365 0.015177 -0.460117 3.778247 0.027162 -0.615378 5.056376 0.000000 -0.000000 -0.000000 -5.168800 -13.765107 -7.108195 0.937924 -0.115754 1.884202 5.243090 -27.756485 -13.437724 -0.000003 0.000001 0.000001 0.038256 -0.729843 5.999996 0.017350 -0.492044 4.040942 0.025657 -0.598093 4.914023 0.000002 0.000001 -0.000001 0.039598 -0.742661 6.105628 0.014932 -0.456205 3.746169 0.027205 -0.615795 5.059831 0.000003 0.000000 0.000001 0.040678 -0.752577 6.187497 0.011509 -0.400680 3.289716 0.030387 -0.650636 5.346881 -0.000004 -0.000001 -0.000000 -9.389484 8.845801 3.055531 14.003437 10.039044 1.747106 -1.475663 2.938729 -3.570886 0.000913 0.000002 0.000001 0.000000 -0.000002 -0.000000 -9.764974 -12.054143 -2.385445 15.244470 -8.001793 -3.452774 -3.123065 -0.374911 3.262094 -0.009729 0.000005 -0.000000 -0.000000 0.000000 -0.000000 
